/* XPM */
static char * raslioncoin16_xpm[] = {
"16 16 188 2",
"  	c None",
". 	c #5F4624",
"+ 	c #614727",
"@ 	c #7C5D35",
"# 	c #5E4426",
"$ 	c #654D31",
"% 	c #443223",
"& 	c #624B36",
"* 	c #684F3C",
"= 	c #634C38",
"- 	c #5D4832",
"; 	c #644B2A",
"> 	c #5F492D",
", 	c #695139",
"' 	c #7D6141",
") 	c #594129",
"! 	c #674F33",
"~ 	c #A17B54",
"{ 	c #44311F",
"] 	c #886B48",
"^ 	c #AD834C",
"/ 	c #5C4427",
"( 	c #836338",
"_ 	c #664C2B",
": 	c #765938",
"< 	c #826340",
"[ 	c #5A432A",
"} 	c #5F492F",
"| 	c #685335",
"1 	c #AF8950",
"2 	c #60492C",
"3 	c #705738",
"4 	c #CCAB6C",
"5 	c #A87E46",
"6 	c #5E4326",
"7 	c #664A27",
"8 	c #62492E",
"9 	c #765736",
"0 	c #664A2F",
"a 	c #80603A",
"b 	c #614A2C",
"c 	c #795C38",
"d 	c #4E3A24",
"e 	c #4B3720",
"f 	c #775F3D",
"g 	c #BD9C65",
"h 	c #C7A564",
"i 	c #B58445",
"j 	c #6E5530",
"k 	c #5D462C",
"l 	c #6F5030",
"m 	c #715332",
"n 	c #5E4529",
"o 	c #6D5231",
"p 	c #7E5E37",
"q 	c #695133",
"r 	c #49351D",
"s 	c #5F482A",
"t 	c #675233",
"u 	c #B9A26F",
"v 	c #D6C082",
"w 	c #C9A65F",
"x 	c #694A28",
"y 	c #624522",
"z 	c #5C4329",
"A 	c #6A4C2A",
"B 	c #664929",
"C 	c #5D4428",
"D 	c #553D22",
"E 	c #7F6237",
"F 	c #7C5B32",
"G 	c #735533",
"H 	c #7E6642",
"I 	c #786340",
"J 	c #B6A069",
"K 	c #CBB278",
"L 	c #CBAB67",
"M 	c #A47C40",
"N 	c #67502B",
"O 	c #624728",
"P 	c #5B4125",
"Q 	c #6D4E2C",
"R 	c #7D592F",
"S 	c #65492C",
"T 	c #7E5F33",
"U 	c #75532A",
"V 	c #614320",
"W 	c #977440",
"X 	c #AF864A",
"Y 	c #8E7244",
"Z 	c #90703D",
"` 	c #D4AF66",
" .	c #C59651",
"..	c #C59853",
"+.	c #6B522E",
"@.	c #574129",
"#.	c #634624",
"$.	c #7A562C",
"%.	c #654928",
"&.	c #593E22",
"*.	c #5D4020",
"=.	c #886839",
"-.	c #896A38",
";.	c #806740",
">.	c #674B32",
",.	c #5B4423",
"'.	c #654B2A",
").	c #BF8E4D",
"!.	c #CC944B",
"~.	c #B6894E",
"{.	c #624A2C",
"].	c #563F23",
"^.	c #604526",
"/.	c #724F29",
"(.	c #593E21",
"_.	c #735938",
":.	c #8B6839",
"<.	c #A17D3E",
"[.	c #6D502B",
"}.	c #9D7C41",
"|.	c #A38046",
"1.	c #846438",
"2.	c #6C5132",
"3.	c #BD9050",
"4.	c #CF9349",
"5.	c #A37745",
"6.	c #694E2C",
"7.	c #674C2F",
"8.	c #694C2A",
"9.	c #664A28",
"0.	c #825F30",
"a.	c #996F37",
"b.	c #A17A40",
"c.	c #A1773D",
"d.	c #936E3C",
"e.	c #9E7542",
"f.	c #866338",
"g.	c #916D41",
"h.	c #C88B47",
"i.	c #82603E",
"j.	c #5B432A",
"k.	c #6E4C26",
"l.	c #7D572C",
"m.	c #8B6433",
"n.	c #74552C",
"o.	c #5F4723",
"p.	c #C2914B",
"q.	c #594122",
"r.	c #816033",
"s.	c #9A703C",
"t.	c #CA9350",
"u.	c #C48F4D",
"v.	c #AE7E49",
"w.	c #7B603D",
"x.	c #694B2D",
"y.	c #805A2E",
"z.	c #A67B43",
"A.	c #755830",
"B.	c #614724",
"C.	c #96703F",
"D.	c #5C4525",
"E.	c #8D693B",
"F.	c #644A28",
"G.	c #B4854A",
"H.	c #A67B45",
"I.	c #7B613E",
"J.	c #785836",
"K.	c #926B3A",
"L.	c #966F3B",
"M.	c #AC8144",
"N.	c #6B4F2B",
"O.	c #9A7241",
"P.	c #7A5A31",
"Q.	c #7B582F",
"R.	c #6A4E2F",
"S.	c #70593D",
"T.	c #745B39",
"U.	c #674F37",
"V.	c #6F5437",
"W.	c #9F7540",
"X.	c #A47940",
"Y.	c #926D41",
"Z.	c #6C5541",
"`.	c #6F5841",
" +	c #6D5139",
".+	c #6D5641",
"++	c #745E49",
"@+	c #6A503A",
"              . + @             ",
"        # $ % & * = - ;         ",
"      > , ' ) ! ~ { ] ^ / (     ",
"    _ : < [ } | 1 2 3 4 5 6     ",
"  7 8 9 0 a b c d e f g h i j   ",
"  k l m n o p q r s t u v w x   ",
"y z A B C D E F G H I J K L M N ",
"O P Q R S T U V W X Y Z `  ...+.",
"@.#.$.%.&.*.=.-.;.>.,.'.).!.~.{.",
"].^./.(._.:.<.[.}.|.1.2.3.4.5.6.",
"  7.$.8.9.0.a.b.c.d.e.f.g.h.i.  ",
"  j.k.l.m.n.o.p.q.r.s.t.u.v.w.  ",
"    x.y.z.A.B.C.D.E.F.G.H.I.    ",
"      J.K.L.M.N.O.P.Q.R.S.T.    ",
"        U.V.W.X.z.Y.Z.`.        ",
"             +.+++@+            "};
