/* XPM */
static char * raslioncoin32_xpm[] = {
"32 32 735 2",
"  	c None",
". 	c #63482B",
"+ 	c #826135",
"@ 	c #71542C",
"# 	c #674E27",
"$ 	c #5F4728",
"% 	c #674E2F",
"& 	c #634A2B",
"* 	c #654D2E",
"= 	c #8D693C",
"- 	c #85643C",
"; 	c #684F33",
"> 	c #6F542E",
", 	c #533B20",
"' 	c #332415",
") 	c #3F2B1C",
"! 	c #573D28",
"~ 	c #57412D",
"{ 	c #5E442E",
"] 	c #58412C",
"^ 	c #553926",
"/ 	c #32241B",
"( 	c #3F2B19",
"_ 	c #553E21",
": 	c #8F6C3F",
"< 	c #906D3F",
"[ 	c #614322",
"} 	c #7D5C30",
"| 	c #46311C",
"1 	c #5A4532",
"2 	c #6E583F",
"3 	c #56412C",
"4 	c #634F38",
"5 	c #6B563D",
"6 	c #705943",
"7 	c #7C604A",
"8 	c #775E4C",
"9 	c #92765A",
"0 	c #735D43",
"a 	c #816B53",
"b 	c #6F5A41",
"c 	c #433322",
"d 	c #513B1A",
"e 	c #A17A43",
"f 	c #7A5D37",
"g 	c #594425",
"h 	c #584331",
"i 	c #68533B",
"j 	c #775E3F",
"k 	c #735B3F",
"l 	c #574029",
"m 	c #664D31",
"n 	c #725637",
"o 	c #765C43",
"p 	c #8F6C49",
"q 	c #967150",
"r 	c #574230",
"s 	c #553F28",
"t 	c #8D7151",
"u 	c #A98758",
"v 	c #A37D4D",
"w 	c #88683F",
"x 	c #352413",
"y 	c #896838",
"z 	c #765A35",
"A 	c #7A582D",
"B 	c #4D3B26",
"C 	c #654F35",
"D 	c #715738",
"E 	c #785B3E",
"F 	c #7C6040",
"G 	c #775A38",
"H 	c #594229",
"I 	c #57412A",
"J 	c #685033",
"K 	c #574128",
"L 	c #93714B",
"M 	c #A58159",
"N 	c #463321",
"O 	c #513B22",
"P 	c #5B442C",
"Q 	c #8A6B47",
"R 	c #BD965A",
"S 	c #A97B3F",
"T 	c #957144",
"U 	c #47331E",
"V 	c #7B5B2F",
"W 	c #88683E",
"X 	c #76542A",
"Y 	c #513C24",
"Z 	c #6B5335",
"` 	c #725739",
" .	c #826443",
"..	c #7C5E3E",
"+.	c #5C4328",
"@.	c #5F462A",
"#.	c #523C28",
"$.	c #594733",
"%.	c #765835",
"&.	c #6B593D",
"*.	c #A27E4B",
"=.	c #A08156",
"-.	c #422E1B",
";.	c #9F804F",
">.	c #8A6C45",
",.	c #997A51",
"'.	c #C09E66",
").	c #D1AD69",
"!.	c #AA824C",
"~.	c #9A713F",
"{.	c #553C25",
"].	c #785A2E",
"^.	c #8D6C42",
"/.	c #5C4021",
"(.	c #5F4725",
"_.	c #72593B",
":.	c #745738",
"<.	c #7D5D39",
"[.	c #795B39",
"}.	c #775938",
"|.	c #423120",
"1.	c #7C6140",
"2.	c #795C39",
"3.	c #614A2C",
"4.	c #765F3B",
"5.	c #58452B",
"6.	c #A57B3E",
"7.	c #9B7B48",
"8.	c #483522",
"9.	c #5C4529",
"0.	c #443320",
"a.	c #705535",
"b.	c #D1AC6B",
"c.	c #AF945E",
"d.	c #A9844E",
"e.	c #A47A41",
"f.	c #885F37",
"g.	c #4E371F",
"h.	c #866634",
"i.	c #72532A",
"j.	c #604932",
"k.	c #664B2D",
"l.	c #715435",
"m.	c #7F5F3B",
"n.	c #6C4E30",
"o.	c #3E2B17",
"p.	c #6A5031",
"q.	c #5D4123",
"r.	c #604A2D",
"s.	c #7A5D3A",
"t.	c #966F42",
"u.	c #7E603D",
"v.	c #4D3A23",
"w.	c #73522F",
"x.	c #503A22",
"y.	c #523C24",
"z.	c #7D643F",
"A.	c #644E34",
"B.	c #C9A56C",
"C.	c #AC8A54",
"D.	c #D6B771",
"E.	c #AA7E43",
"F.	c #B98643",
"G.	c #846039",
"H.	c #392815",
"I.	c #B79151",
"J.	c #73522B",
"K.	c #59442A",
"L.	c #61492E",
"M.	c #6C4F2E",
"N.	c #7B5B38",
"O.	c #6A4D2F",
"P.	c #7E5E3E",
"Q.	c #7C5C3C",
"R.	c #846441",
"S.	c #A17B4B",
"T.	c #755932",
"U.	c #48341E",
"V.	c #544329",
"W.	c #6A5232",
"X.	c #6D5336",
"Y.	c #291F12",
"Z.	c #402F1D",
"`.	c #554125",
" +	c #624627",
".+	c #967F56",
"++	c #A07E49",
"@+	c #D8BF89",
"#+	c #CBB478",
"$+	c #CBA661",
"%+	c #C69B55",
"&+	c #AF7B3C",
"*+	c #65492D",
"=+	c #806536",
"-+	c #634827",
";+	c #5E4831",
">+	c #63492D",
",+	c #7E5B38",
"'+	c #775836",
")+	c #755635",
"!+	c #563E26",
"~+	c #725431",
"{+	c #684D2C",
"]+	c #8C6A3E",
"^+	c #866235",
"/+	c #745431",
"(+	c #7F5C37",
"_+	c #675134",
":+	c #624526",
"<+	c #5D4427",
"[+	c #48371F",
"}+	c #695233",
"|+	c #7A633D",
"1+	c #665334",
"2+	c #A48353",
"3+	c #CEBD87",
"4+	c #DEC789",
"5+	c #D8BF80",
"6+	c #CFB774",
"7+	c #AD823D",
"8+	c #976C3B",
"9+	c #3E2C17",
"0+	c #C0A25D",
"a+	c #513819",
"b+	c #544029",
"c+	c #5E462B",
"d+	c #684C2E",
"e+	c #6D4E2B",
"f+	c #795936",
"g+	c #5A3F24",
"h+	c #5E4426",
"i+	c #5A452D",
"j+	c #735837",
"k+	c #563F27",
"l+	c #775A36",
"m+	c #705836",
"n+	c #54452C",
"o+	c #674C2F",
"p+	c #342615",
"q+	c #42311D",
"r+	c #795933",
"s+	c #574528",
"t+	c #755A37",
"u+	c #59472E",
"v+	c #947C4F",
"w+	c #CFBB85",
"x+	c #CBB67C",
"y+	c #CDB87A",
"z+	c #D4BA7C",
"A+	c #CB9B4A",
"B+	c #A37C3C",
"C+	c #593E28",
"D+	c #977D43",
"E+	c #694A25",
"F+	c #4E3B28",
"G+	c #664A2A",
"H+	c #6A4C2A",
"I+	c #674A2A",
"J+	c #785734",
"K+	c #5C4325",
"L+	c #4D3B27",
"M+	c #543F29",
"N+	c #6E5434",
"O+	c #4F3921",
"P+	c #51361B",
"Q+	c #604D35",
"R+	c #785930",
"S+	c #705232",
"T+	c #61462B",
"U+	c #584125",
"V+	c #694F2E",
"W+	c #957C4B",
"X+	c #6F5835",
"Y+	c #907A4D",
"Z+	c #76603F",
"`+	c #DCC27C",
" @	c #C6B481",
".@	c #C1A56A",
"+@	c #CCAC6D",
"@@	c #C7A35E",
"#@	c #C39E51",
"$@	c #866138",
"%@	c #5C4722",
"&@	c #5E4323",
"*@	c #5E442A",
"=@	c #604527",
"-@	c #634829",
";@	c #77542E",
">@	c #805C34",
",@	c #47311A",
"'@	c #634726",
")@	c #6D4E2A",
"!@	c #3E2A16",
"~@	c #694924",
"{@	c #866435",
"]@	c #C19951",
"^@	c #755434",
"/@	c #977137",
"(@	c #B78B56",
"_@	c #614A28",
":@	c #765D3B",
"<@	c #786447",
"[@	c #6C583B",
"}@	c #715D3E",
"|@	c #997D46",
"1@	c #E2D399",
"2@	c #D1BC82",
"3@	c #DBBA74",
"4@	c #D7B76C",
"5@	c #C2A15C",
"6@	c #B18A43",
"7@	c #8A6235",
"8@	c #533C21",
"9@	c #916C3B",
"0@	c #654929",
"a@	c #5D4323",
"b@	c #704F2C",
"c@	c #765530",
"d@	c #795630",
"e@	c #73532D",
"f@	c #715230",
"g@	c #5C4229",
"h@	c #573D22",
"i@	c #896B3B",
"j@	c #A67B46",
"k@	c #986B30",
"l@	c #754F21",
"m@	c #906433",
"n@	c #C49959",
"o@	c #A78B55",
"p@	c #B19259",
"q@	c #705930",
"r@	c #534225",
"s@	c #655538",
"t@	c #6A4F2C",
"u@	c #D3B264",
"v@	c #C3AA6F",
"w@	c #DAB369",
"x@	c #D9AF67",
"y@	c #C4964F",
"z@	c #D6AC64",
"A@	c #AB8043",
"B@	c #45311D",
"C@	c #C6A359",
"D@	c #705634",
"E@	c #5E4225",
"F@	c #5C4225",
"G@	c #75532D",
"H@	c #825B30",
"I@	c #7A572C",
"J@	c #7F5B34",
"K@	c #4B361F",
"L@	c #7E6237",
"M@	c #845E2E",
"N@	c #543B1E",
"O@	c #46331A",
"P@	c #604725",
"Q@	c #402F16",
"R@	c #65431C",
"S@	c #74552C",
"T@	c #B68649",
"U@	c #AB7E42",
"V@	c #A88B59",
"W@	c #C18F4D",
"X@	c #9C7A42",
"Y@	c #795733",
"Z@	c #C3974D",
"`@	c #DFB569",
" #	c #CE9A52",
".#	c #B48547",
"+#	c #B98B47",
"@#	c #B1864B",
"##	c #392817",
"$#	c #B8904D",
"%#	c #674E2E",
"&#	c #624625",
"*#	c #624423",
"=#	c #74522B",
"-#	c #805B2F",
";#	c #74532C",
">#	c #624728",
",#	c #503821",
"'#	c #4F371F",
")#	c #7B582C",
"!#	c #50371A",
"~#	c #584127",
"{#	c #593F23",
"]#	c #A68242",
"^#	c #8A6631",
"/#	c #493020",
"(#	c #332212",
"_#	c #23180F",
":#	c #2A1809",
"<#	c #4C3519",
"[#	c #453422",
"}#	c #5F482A",
"|#	c #95713D",
"1#	c #9F723F",
"2#	c #CB9C4D",
"3#	c #D39C50",
"4#	c #D2984E",
"5#	c #C59654",
"6#	c #9C7542",
"7#	c #3D2B1C",
"8#	c #9E7E47",
"9#	c #634E35",
"0#	c #604525",
"a#	c #6A4A28",
"b#	c #6D4C26",
"c#	c #7B582E",
"d#	c #7A5830",
"e#	c #503A20",
"f#	c #856135",
"g#	c #48321A",
"h#	c #47321C",
"i#	c #805B2D",
"j#	c #BD9A4F",
"k#	c #AB8144",
"l#	c #7B6130",
"m#	c #6A5136",
"n#	c #CAA35D",
"o#	c #BBA46A",
"p#	c #BF9561",
"q#	c #B18458",
"r#	c #715932",
"s#	c #916B35",
"t#	c #66492D",
"u#	c #4D3820",
"v#	c #B88F58",
"w#	c #D69C4F",
"x#	c #C08C45",
"y#	c #C9904A",
"z#	c #BB8749",
"A#	c #A67E4C",
"B#	c #422F1E",
"C#	c #B99050",
"D#	c #60492B",
"E#	c #5E4628",
"F#	c #5F4220",
"G#	c #6D4B26",
"H#	c #75522C",
"I#	c #7A5730",
"J#	c #4D361C",
"K#	c #665032",
"L#	c #785D3C",
"M#	c #A27A44",
"N#	c #B48844",
"O#	c #BC9746",
"P#	c #BB924A",
"Q#	c #644626",
"R#	c #9F7D42",
"S#	c #AC8A46",
"T#	c #BD9D51",
"U#	c #C9A65E",
"V#	c #997745",
"W#	c #90693D",
"X#	c #B08745",
"Y#	c #644A35",
"Z#	c #5B452D",
"`#	c #D6A660",
" $	c #E3AC5C",
".$	c #DB9C4D",
"+$	c #D4954C",
"@$	c #BB8444",
"#$	c #8D6A43",
"$$	c #4E3920",
"%$	c #50391E",
"&$	c #5E462D",
"*$	c #664824",
"=$	c #6B4B25",
"-$	c #78542C",
";$	c #6D4C28",
">$	c #402C19",
",$	c #806139",
"'$	c #5F462B",
")$	c #674B2C",
"!$	c #5C4428",
"~$	c #8B6634",
"{$	c #684E2C",
"]$	c #74542D",
"^$	c #543C22",
"/$	c #8E6B39",
"($	c #745833",
"_$	c #624826",
":$	c #B68C4B",
"<$	c #7B5F3B",
"[$	c #584425",
"}$	c #8E6C3B",
"|$	c #6F542F",
"1$	c #745733",
"2$	c #AD8145",
"3$	c #C28C47",
"4$	c #C48A45",
"5$	c #BA864A",
"6$	c #85653F",
"7$	c #644927",
"8$	c #4C3418",
"9$	c #58432E",
"0$	c #6B4B28",
"a$	c #6F4E28",
"b$	c #7B562F",
"c$	c #543A1F",
"d$	c #654C2B",
"e$	c #432E16",
"f$	c #533D23",
"g$	c #573C1F",
"h$	c #593E22",
"i$	c #684B27",
"j$	c #73542E",
"k$	c #876A3B",
"l$	c #71532C",
"m$	c #78572F",
"n$	c #705431",
"o$	c #563F21",
"p$	c #755833",
"q$	c #775835",
"r$	c #634A2A",
"s$	c #805F39",
"t$	c #755632",
"u$	c #7D5B34",
"v$	c #CF924C",
"w$	c #CA8B43",
"x$	c #B48249",
"y$	c #806144",
"z$	c #7A5F3D",
"A$	c #593F22",
"B$	c #735029",
"C$	c #805A2D",
"D$	c #7F592F",
"E$	c #70502C",
"F$	c #866335",
"G$	c #8A6337",
"H$	c #9F743D",
"I$	c #A67C3C",
"J$	c #C99146",
"K$	c #C29146",
"L$	c #C39148",
"M$	c #BA8E47",
"N$	c #BF8E46",
"O$	c #CE9B51",
"P$	c #C69552",
"Q$	c #C8944E",
"R$	c #BC8B4C",
"S$	c #B18246",
"T$	c #9D733F",
"U$	c #AA8047",
"V$	c #B48751",
"W$	c #B38851",
"X$	c #BD874A",
"Y$	c #B57D43",
"Z$	c #966E44",
"`$	c #513B27",
" %	c #9B7947",
".%	c #4F391F",
"+%	c #684D33",
"@%	c #785329",
"#%	c #7E592D",
"$%	c #7D572C",
"%%	c #7E582D",
"&%	c #8B6536",
"*%	c #5F4521",
"=%	c #5C4420",
"-%	c #5D4622",
";%	c #C5954D",
">%	c #9F773D",
",%	c #5F4621",
"'%	c #AC7E41",
")%	c #CD9952",
"!%	c #79582E",
"~%	c #664A29",
"{%	c #7E5B30",
"]%	c #CB934F",
"^%	c #C48F4C",
"/%	c #C38D4A",
"(%	c #BD884B",
"_%	c #B98649",
":%	c #B6814A",
"<%	c #8B6B46",
"[%	c #6E5533",
"}%	c #604426",
"|%	c #765229",
"1%	c #7B562B",
"2%	c #8B6537",
"3%	c #A87C40",
"4%	c #BA8A47",
"5%	c #46341A",
"6%	c #A67B3E",
"7%	c #41311A",
"8%	c #B18441",
"9%	c #B7884A",
"0%	c #3E2E1A",
"a%	c #503B21",
"b%	c #B98A4C",
"c%	c #20180C",
"d%	c #D09852",
"e%	c #A57840",
"f%	c #B58347",
"g%	c #CD9753",
"h%	c #C49150",
"i%	c #C28F4F",
"j%	c #AA7C48",
"k%	c #936F44",
"l%	c #92754A",
"m%	c #594022",
"n%	c #664B32",
"o%	c #704D27",
"p%	c #855D30",
"q%	c #75522A",
"r%	c #906938",
"s%	c #9F7744",
"t%	c #CC9952",
"u%	c #574020",
"v%	c #6B4E28",
"w%	c #43321A",
"x%	c #AC7F46",
"y%	c #6E532F",
"z%	c #513D22",
"A%	c #161008",
"B%	c #AD8247",
"C%	c #8B673A",
"D%	c #2C2112",
"E%	c #936B3A",
"F%	c #B78749",
"G%	c #BE8D4D",
"H%	c #AE8046",
"I%	c #B4884F",
"J%	c #946F45",
"K%	c #806641",
"L%	c #7A603E",
"M%	c #6B4E2E",
"N%	c #67492C",
"O%	c #79542B",
"P%	c #8E6635",
"Q%	c #A97E42",
"R%	c #B38549",
"S%	c #72542F",
"T%	c #584225",
"U%	c #C18E4A",
"V%	c #352715",
"W%	c #C69351",
"X%	c #5C4527",
"Y%	c #BC8B4B",
"Z%	c #614928",
"`%	c #7D5B32",
" &	c #584126",
".&	c #C39050",
"+&	c #332614",
"@&	c #966E3F",
"#&	c #AB7F48",
"$&	c #9F7641",
"%&	c #916D3F",
"&&	c #836943",
"*&	c #654F34",
"=&	c #795834",
"-&	c #815C30",
";&	c #976F3D",
">&	c #AF8345",
",&	c #AB7E41",
"'&	c #6C5029",
")&	c #906C3A",
"!&	c #9A7340",
"~&	c #604727",
"{&	c #A27944",
"]&	c #836037",
"^&	c #5A4326",
"/&	c #402D17",
"(&	c #8A6333",
"_&	c #765634",
":&	c #A47949",
"<&	c #906E47",
"[&	c #6E583A",
"}&	c #685234",
"|&	c #876B48",
"1&	c #6C5130",
"2&	c #795A3E",
"3&	c #6B4D2D",
"4&	c #956F3F",
"5&	c #8A6539",
"6&	c #AA7F44",
"7&	c #B28544",
"8&	c #BA8B48",
"9&	c #9B723D",
"0&	c #8F6939",
"a&	c #886538",
"b&	c #AD8148",
"c&	c #A57A44",
"d&	c #9A7440",
"e&	c #9E7441",
"f&	c #7B5834",
"g&	c #422F1A",
"h&	c #614A30",
"i&	c #6E583E",
"j&	c #5F4C33",
"k&	c #604323",
"l&	c #7B634B",
"m&	c #6E533A",
"n&	c #6B5030",
"o&	c #846236",
"p&	c #B88848",
"q&	c #B78745",
"r&	c #BB8B48",
"s&	c #A0763E",
"t&	c #AD8146",
"u&	c #9B7440",
"v&	c #A47B45",
"w&	c #C3904F",
"x&	c #7D5E3B",
"y&	c #715A45",
"z&	c #6F5845",
"A&	c #54402E",
"B&	c #6E5638",
"C&	c #5C462E",
"D&	c #6D553F",
"E&	c #6B5037",
"F&	c #704F31",
"G&	c #926F42",
"H&	c #906B3D",
"I&	c #9C7443",
"J&	c #A47A46",
"K&	c #9A7140",
"L&	c #73573C",
"M&	c #654E35",
"N&	c #78624E",
"O&	c #594432",
"P&	c #654D33",
"Q&	c #A78A66",
"R&	c #523D24",
"S&	c #836246",
"T&	c #8F7357",
"U&	c #79634F",
"V&	c #7A6650",
"W&	c #7E6350",
"X&	c #755841",
"Y&	c #6A523A",
"Z&	c #5D482D",
"                                                                ",
"                      . + @ # $ % & * = -                       ",
"                  ; > , ' ) ! ~ { ] ^ / ( _ : <                 ",
"              [ } | 1 2 3 4 5 6 7 8 9 0 a b c d e               ",
"            f g h i j k l m n o p q r s t u v w x y z           ",
"          A B C D E F G H I J K L M N O P Q R S T U V W         ",
"        X Y Z `  ...+.@.#.$.%.&.*.=.-.;.>.,.'.).!.~.{.].^.      ",
"      /.(._.:.<.[.}.|.1.2.3.4.5.6.7.8.9.0.a.b.c.d.e.f.g.h.      ",
"      i.j.k.l.m.n.o.p.q.r.s.t.u.v.w.x.y.z.A.B.C.D.E.F.G.H.I.    ",
"    J.K.L.M.N.O.P.Q.R.S.T.U.V.W.X.Y.Z.`. +.+++@+#+$+%+&+*+=+    ",
"    -+;+>+,+'+)+!+~+{+]+^+/+(+_+:+<+[+}+|+1+2+3+4+5+6+7+8+9+0+  ",
"  a+b+c+d+e+f+g+h+i+j+k+l+m+n+o+p+q+r+s+t+u+v+w+x+y+z+A+B+C+D+  ",
"  E+F+G+H+I+J+K+L+M+N+O+P+Q+R+S+T+U+V+W+X+Y+Z+`+ @.@+@@@#@$@%@  ",
"  &@*@=@-@;@>@,@'@)@!@~@{@]@^@/@(@_@:@<@[@}@|@1@2@3@4@5@6@7@8@9@",
"  0@l a@b@c@d@e@f@g@h@i@j@k@l@m@n@o@p@q@r@s@t@u@v@w@x@y@z@A@B@C@",
"  D@E@:+F@G@H@I@J@K@L@M@N@O@P@Q@R@S@T@U@V@W@X@Y@Z@`@ #.#+#@###$#",
"  %#&#*#=#-#;#>#,#'#)#!#~#{#]#^#/#(#_#:#<#[#}#|#1#2#3#4#5#6#7#8#",
"  9#0#a#b#c#d#e#f#g#h#i#j#k#l#m#n#o#p#q#r#s#t#u#v#w#x#y#z#A#B#C#",
"  D#E#F#G#H#I#J#K#L#M#N#O#P#Q#R#S#T#U#V#W#X#Y#Z#`# $.$+$@$#$$$  ",
"  %$&$*$=$-$;$>$,$'$)$!$~${$]$^$/$($_$:$<$[$}$|$1$2$3$4$5$6$7$  ",
"  8$9$0$a$b$c$d$e$f$-+g$h$i$j$k$l$m$n$o$p$q$r$s$t$u$v$w$x$y$|$  ",
"    z$A$B$C$D$E$F$G$H$I$J$K$L$M$N$O$P$Q$R$S$T$U$V$W$X$Y$Z$`$ %  ",
"    .%+%;$@%#%$%#%%%&%*%=%-%;%>%,%'%)%!%~%{%]%^%/%(%_%:%<%[%    ",
"      X.}%|%1%$%2%3%4%5%6%7%8%9%0%a%b%c%d%e%f%g%h%i%j%k%Z l%    ",
"      m%n%o%p%q%r%s%t%u%v%w%x%y%z%A%B%C%D%E%F%G%H%I%J%K%L%      ",
"        M%N%O%P%Q%R%S%T%U%V%W%X%Y%Z%`% &.&+&@&#&$&%&&&*&        ",
"          n =&-&;&>&,&'&)&!&a%~&{&]&/.^&/&(&_&:&<&[&}&|&        ",
"            1&2&3&4&5&6&7&8&9&0&a&b&c&d&e&f&g&h&i&j&            ",
"              k&l&m&n&o&p&q&r&s&t&u&v&w&x&y&z&A&B&              ",
"                  C&D&E&F&G&H&I&J&K&L&M&N&O&P&Q&                ",
"                      R&+%S&T&U&V&W&X&Y&Z&                      ",
"                                                                "};
